<svg width="17" height="22" viewBox="0 0 17 22" fill="none" xmlns="http://www.w3.org/2000/svg">
<path d="M8.5 0.5C6.31273 0.502481 4.21575 1.37247 2.66911 2.91911C1.12247 4.46575 0.252481 6.56273 0.25 8.75C0.25 15.8094 7.75 21.1409 8.06969 21.3641C8.19579 21.4524 8.34603 21.4998 8.5 21.4998C8.65397 21.4998 8.80421 21.4524 8.93031 21.3641C9.25 21.1409 16.75 15.8094 16.75 8.75C16.7475 6.56273 15.8775 4.46575 14.3309 2.91911C12.7843 1.37247 10.6873 0.502481 8.5 0.5ZM8.5 5.75C9.09334 5.75 9.67336 5.92595 10.1667 6.25559C10.6601 6.58524 11.0446 7.05377 11.2716 7.60195C11.4987 8.15013 11.5581 8.75333 11.4424 9.33527C11.3266 9.91721 11.0409 10.4518 10.6213 10.8713C10.2018 11.2909 9.66721 11.5766 9.08527 11.6924C8.50333 11.8081 7.90013 11.7487 7.35195 11.5216C6.80377 11.2946 6.33524 10.9101 6.00559 10.4167C5.67595 9.92336 5.5 9.34334 5.5 8.75C5.5 7.95435 5.81607 7.19129 6.37868 6.62868C6.94129 6.06607 7.70435 5.75 8.5 5.75Z" fill="#043353"/>
</svg>
